<svg width="101" height="139" viewBox="0 0 101 139" fill="none" xmlns="http://www.w3.org/2000/svg">
<path fill-rule="evenodd" clip-rule="evenodd" d="M0.399217 123.826C1.60542 129.944 6.6441 135.061 13.3166 136.945C15.117 137.454 20.812 137.608 54.3051 138.058L93.2027 138.58L93.2962 131.622L93.3896 124.664L83.6883 124.774C61.7959 125.021 27.5688 125.083 22.3147 124.886C17.4386 124.702 16.507 124.567 15.2575 123.862C13.3609 122.791 12.6769 121.936 12.4031 120.292C12.2437 119.336 12.3675 118.568 12.8221 117.687C13.9266 115.548 11.9801 116.959 36.7307 100.364C44.2468 95.325 50.6682 91.0363 51.0005 90.8341C53.8555 89.0958 60.9961 84.1287 61.9672 83.2057C62.6353 82.5703 63.713 80.9796 64.3615 79.6707C66.5146 75.3259 65.8624 70.2989 62.6922 66.806C59.0031 62.7414 51.3029 58.1091 45.7781 56.63C41.6638 55.5287 35.4338 55.0367 23.3978 54.862L13.2086 54.7144L13.0402 51.9151C12.4117 41.4459 16.3999 31.1438 23.9984 23.6103C33.2886 14.3987 46.3774 11.001 60.4538 14.1466C68.8145 16.0147 77.6881 22.0758 78.5759 26.5249C79.1504 29.4049 77.9126 30.8767 70.8814 35.6737C65.9064 39.0677 63.6964 41.0858 62.1752 43.6245C61.4379 44.8546 61.2816 45.6073 61.2476 48.0872C61.1741 53.4271 62.5283 55.0832 72.8335 62.2581C85.8805 71.3419 87.2003 72.5105 87.1675 74.9506C87.146 76.5535 86.3531 77.9996 84.9525 78.9907C84.3869 79.3907 78.0187 83.6857 70.8003 88.535C63.5823 93.3843 53.2304 100.356 47.7963 104.027C42.3622 107.699 35.984 111.958 33.6227 113.491C31.2615 115.024 29.3254 116.404 29.3208 116.558C29.309 116.95 38.7629 117.018 44.0911 116.664C51.8024 116.152 51.4154 116.35 74.1403 101.226C96.0863 86.6201 97.7578 85.2817 99.4285 80.977C100.579 78.0131 100.865 73.8043 100.109 70.984C98.8583 66.3216 96.2928 63.3842 89.3987 58.721C80.1771 52.4832 76.092 49.3737 75.9807 48.5062C75.831 47.3414 76.4406 46.766 81.3251 43.4639C87.1537 39.5235 89.1904 37.5847 90.7414 34.5027C92.9406 30.1316 92.9608 25.5496 90.8021 20.8567C89.2927 17.5751 84.8074 12.6727 80.5335 9.63262C64.9382 -1.4594 44.8863 -3.09436 28.2709 5.37115C23.9834 7.55566 23.9951 7.54837 20.3911 10.3007C9.91368 18.3023 3.14924 30.5288 1.27734 44.8482C0.454916 51.1416 0.794199 59.711 1.98681 62.7642C2.26935 63.4881 2.92022 64.5429 3.43297 65.1085C5.25136 67.1147 6.30729 67.25 23.2645 67.6526C40.0938 68.052 41.5547 68.2179 46.351 70.2689C49.4004 71.573 50.9324 73.0114 50.9117 74.5514C50.8897 76.192 51.1603 75.9931 28.7547 90.8603C6.08231 105.905 4.57912 107.023 2.57566 110.347C0.205779 114.279 -0.554765 118.988 0.399217 123.826Z" fill="black"/>
</svg>
