<svg width="599" height="177" viewBox="0 0 599 177" fill="none" xmlns="http://www.w3.org/2000/svg">
<path fill-rule="evenodd" clip-rule="evenodd" d="M578.158 0.759518C567.896 4.44552 564.148 18.5395 571.48 25.8715C575.736 30.1265 583.59 30.8415 588.566 27.4265C595.928 22.3735 598.535 14.3445 595.137 7.18551C592.442 1.50451 584.475 -1.51048 578.158 0.759518ZM178.158 46.8125C167.259 50.6885 157.603 63.8025 150.133 84.8755C147.829 91.3735 147.562 93.0815 148.522 95.1885C149.463 97.2545 150.262 97.6565 152.915 97.4005C156.488 97.0555 156.385 97.2115 163.681 81.0875C169.829 67.5015 178.642 59.7095 178.668 67.8375C178.674 69.6255 173.399 93.2995 166.946 120.448L155.212 169.809L157.546 171.698C159.181 173.022 161.473 173.588 165.204 173.588C173.736 173.588 175.338 172.555 177.153 165.878C188.628 123.678 206.596 84.3475 221.85 68.0415C226.772 62.7805 228.493 61.5455 230.57 61.7865C235.301 62.3365 234.645 66.8745 222.208 119.635C210.346 169.953 210.128 171.403 214.212 172.97C217.338 174.17 226.2 173.597 228.403 172.054C229.811 171.068 231.343 167.941 232.692 163.304C240.153 137.645 246.128 121.694 255.625 102.088C267.349 77.8845 280.218 61.0565 286.453 61.7755C288.703 62.0355 289.211 62.6415 289.475 65.3805C289.659 67.3025 285.542 84.5826 279.587 106.881C266.489 155.925 265.909 162.593 274.056 170.489C277.802 174.12 284.229 176.054 289.075 175.009C300.649 172.513 309.417 161.752 316.574 141.258C320.028 131.371 320.394 127.467 318.087 125.159C314.102 121.175 310.504 124.557 306.724 135.837C303.041 146.829 300.156 152.16 296.372 154.966C293.025 157.449 290.333 156.344 289.847 152.289C289.675 150.86 294.123 132.23 299.73 110.889C310.673 69.2365 311.878 61.5245 308.447 55.0875C299.259 37.8485 277.286 44.8815 260.968 70.2835C258.211 74.5755 254.949 79.6625 253.721 81.5875C251.844 84.5275 251.577 84.6875 252.052 82.5875C255.737 66.2855 254.945 56.0285 249.589 50.6725C237.152 38.2355 217.142 49.7605 200.03 79.2135C197.164 84.1465 195.715 85.9665 196.15 84.0875C200.503 65.2825 200.804 57.5985 197.388 52.4855C193.348 46.4375 185.621 44.1585 178.158 46.8125ZM379.635 47.8635C354.178 56.5435 329.728 92.6785 324.001 130.088C320.747 151.337 324.994 168.09 334.936 173.232C336.691 174.139 340.447 174.874 343.332 174.874C354.033 174.874 366.131 165.782 376.702 149.799C379.658 145.33 382.187 141.784 382.322 141.918C382.456 142.053 382.161 145.027 381.667 148.527C379.327 165.082 386.127 175.069 399.658 174.949C413.299 174.827 423.219 163.777 429.198 142.042C432.452 130.216 432.452 125.906 429.199 124.424C425.147 122.577 422.506 125.175 419.763 133.704C415.135 148.094 409.939 156.588 405.765 156.588C403.169 156.588 402.413 155.225 402.476 150.659C402.505 148.6 407.521 125.462 413.622 99.2405C425.729 47.2165 425.689 47.5875 419.204 47.5875C416.644 47.5875 415.031 48.4245 412.577 51.0265L409.333 54.4655L405.503 51.1865C398.515 45.2055 390.463 44.1715 379.635 47.8635ZM467.078 46.9465C464.834 47.6775 461.55 49.3475 459.779 50.6565C452.713 55.8805 443.241 71.8235 438.599 86.3035C436.349 93.3245 436.336 93.5745 438.127 95.5535C440.243 97.8915 443.89 98.2175 445.55 96.2175C446.175 95.4645 448.405 90.6245 450.506 85.4615C454.987 74.4485 458.681 68.2735 462.147 66.0025C464.967 64.1555 467.658 64.7165 467.658 67.1525C467.658 68.0485 463.15 85.7345 457.641 106.456C446.516 148.296 445.584 154.602 449.411 162.104C453.91 170.922 460.382 174.791 470.658 174.805C488.765 174.828 507.313 156.51 520.494 125.588C531.263 100.325 534.777 67.1385 528.158 53.2195C524.511 45.5505 516.219 43.3275 510.459 48.4735C505.762 52.6705 505.925 59.0205 511.032 70.8825C518.808 88.9425 516.641 108.097 504.045 132.646C493.669 152.869 476.659 166.424 469.636 160.068C465.916 156.702 466.962 150.205 477.801 109.333C488.86 67.6385 490.166 59.7055 486.97 53.6585C483.328 46.7665 475.615 44.1645 467.078 46.9465ZM562.158 47.8875C552.392 52.5865 543.546 65.0035 537.084 83.0845C533.099 94.2335 533.593 97.5305 539.253 97.5725C542.061 97.5925 543.882 95.2615 546.663 88.0875C550.406 78.4335 553.484 72.7865 557.309 68.5515C561.228 64.2145 564.133 63.4705 564.95 66.5955C565.239 67.7005 561.018 87.8375 555.571 111.346C550.068 135.091 545.665 156.31 545.664 159.088C545.661 164.943 547.999 170.097 551.985 173.017C556.34 176.208 565.76 175.89 571.804 172.348C581.391 166.73 589.346 154.968 595.582 137.195C598.477 128.943 598.591 128.133 597.157 125.945C595.323 123.146 591.596 122.852 589.473 125.338C588.651 126.3 586.932 129.788 585.653 133.088C581.91 142.742 578.832 148.389 575.007 152.624C571.078 156.973 568.183 157.704 567.36 154.555C567.067 153.437 571.077 134.425 576.271 112.305C587.046 66.4105 587.967 60.0745 584.773 53.8135C582.033 48.4425 579.112 46.5785 572.485 45.9705C568.233 45.5815 566.149 45.9675 562.158 47.8875ZM384.892 58.0855C379.544 60.4095 370.872 69.4375 365.236 78.5495C352.527 99.0965 344.658 124.417 344.658 144.764C344.658 154.925 345.61 157.588 349.243 157.588C357.736 157.588 370.492 142.154 382.714 117.088C397.435 86.8955 401.894 60.9085 392.937 57.5035C389.799 56.3105 388.811 56.3825 384.892 58.0855Z" fill="black"/>
<path fill-rule="evenodd" clip-rule="evenodd" d="M0.917444 157.725C2.4679 165.378 8.93573 171.782 17.4987 174.141C19.8092 174.778 27.117 174.974 70.0955 175.551L120.009 176.221L120.126 167.517L120.243 158.814L107.794 158.946C79.702 159.246 35.7819 159.309 29.0398 159.06C22.7827 158.828 21.5872 158.658 19.9836 157.776C17.5494 156.435 16.6713 155.366 16.3192 153.309C16.1143 152.113 16.2728 151.152 16.8557 150.051C18.2722 147.376 15.775 149.139 47.5277 128.392C57.1702 122.092 65.4083 116.73 65.8346 116.477C69.4974 114.304 78.6579 108.094 79.9037 106.939C80.7608 106.145 82.1429 104.156 82.9745 102.519C85.7356 97.0846 84.8964 90.796 80.8269 86.4253C76.0914 81.3394 66.2084 75.5414 59.1183 73.6889C53.8384 72.3095 45.8439 71.6913 30.3993 71.4676L17.3244 71.2785L17.1072 67.7768C16.2961 54.6805 21.4093 41.7954 31.1564 32.3751C43.0735 20.8562 59.8676 16.6117 77.9318 20.5527C88.661 22.8931 100.05 30.4788 101.191 36.0446C101.93 39.6475 100.342 41.488 91.3217 47.4855C84.9394 51.7289 82.1044 54.2524 80.1535 57.4274C79.2078 58.9658 79.0077 59.9073 78.9651 63.0094C78.8731 69.689 80.6115 71.7612 93.8382 80.7408C110.584 92.1094 112.278 93.5718 112.237 96.624C112.21 98.6292 111.193 100.438 109.397 101.677C108.671 102.177 100.501 107.547 91.2406 113.61C81.9806 119.673 68.7001 128.389 61.7287 132.979C54.7573 137.57 46.5746 142.894 43.5453 144.811C40.516 146.728 38.0323 148.453 38.0264 148.646C38.0115 149.137 50.1426 149.226 56.9797 148.785C66.8746 148.147 66.3781 148.395 95.5321 129.486C123.687 111.225 125.831 109.552 127.973 104.168C129.448 100.461 129.814 95.1961 128.842 91.6679C127.235 85.8351 123.942 82.1596 115.093 76.3234C103.257 68.5166 98.0139 64.6251 97.8707 63.5399C97.6781 62.0828 98.4602 61.3632 104.727 57.2348C112.204 52.3082 114.817 49.8839 116.806 46.0293C119.626 40.5624 119.65 34.8309 116.877 28.9596C114.939 24.854 109.182 18.7196 103.696 14.9148C83.6793 1.03306 57.9481 -1.02081 36.6309 9.56151C31.1302 12.2923 31.1452 12.2831 26.5217 15.7245C13.0806 25.7291 4.4058 41.0203 2.00999 58.9317C0.957389 66.8038 1.39647 77.5233 2.92815 81.3431C3.29102 82.2488 4.12667 83.5685 4.78488 84.2762C7.11911 86.7865 8.47412 86.9564 30.2338 87.4673C51.8292 87.9742 53.7039 88.1823 59.8594 90.75C63.773 92.3826 65.7394 94.1827 65.7136 96.109C65.686 98.1612 66.0332 97.9125 37.2888 116.5C8.2022 135.309 6.2738 136.708 3.7044 140.865C0.665084 145.782 -0.308802 151.673 0.917444 157.725Z" fill="black"/>
</svg>
