<svg xmlns="http://www.w3.org/2000/svg" viewBox="-8 -150 396 162" width="396" height="162" role="img" aria-label="mavi">
  <path d="M118.200 1.800L118.200 1.800Q111 1.800 107.400-4.200Q103.800-10.200 107-22.800L107-22.800L122.400-80.800Q124.600-88.600 123.100-91.600Q121.600-94.600 118.800-94.600L118.800-94.600Q114.800-94.600 109.600-89.100Q104.400-83.600 98.700-74.200Q93-64.800 87.600-52.800Q82.200-40.800 77.600-27.800Q73-14.800 70-2.200L70-2.200Q69.400 0 67.200 0L67.200 0L59.400 0Q56.600 0 57.200-2.600L57.200-2.600L75.600-80.800Q77.400-88.600 76.100-91.600Q74.800-94.600 72-94.600L72-94.600Q68.200-94.600 63-89.100Q57.800-83.600 52.200-74.200Q46.600-64.800 41.200-52.800Q35.800-40.800 31.200-27.800Q26.600-14.800 23.800-2.200L23.800-2.200Q23.200 0 21 0L21 0L12.800 0Q10 0 10.600-2.600L10.600-2.600L29.600-82.400Q30.600-86.800 29.900-89.300Q29.200-91.800 26.200-91.800L26.200-91.800Q22.600-91.800 18.300-86.500Q14-81.200 8.600-66.400L8.600-66.400Q7.800-63.800 5.800-63.800L5.800-63.800Q2.800-63.800 4.200-67.400L4.200-67.400Q8.600-81.200 13.500-89Q18.400-96.800 23.400-100Q28.400-103.200 32.600-103.200L32.600-103.200Q39.200-103.200 42-98.300Q44.800-93.400 42.200-82.200L42.200-82.200L37.200-60.600Q37-59.200 37.800-59Q38.600-58.800 39.200-60L39.200-60Q50.800-84 60.200-93.600Q69.600-103.200 77.400-103.200L77.400-103.200Q84.800-103.200 87.900-97.200Q91-91.200 88.200-78.800L88.200-78.800L84-60.600Q83.800-59.200 84.600-59Q85.400-58.800 86-60L86-60Q93.600-76.200 100.300-85.700Q107-95.200 113-99.200Q119-103.200 124.200-103.200L124.200-103.200Q131.600-103.200 135-97.200Q138.400-91.200 135-78.800L135-78.800L119.800-20.800Q118.400-15.200 119.600-12.400Q120.800-9.600 124-9.600L124-9.600Q128-9.600 131.900-14.900Q135.800-20.200 140-35L140-35Q140.600-37.200 142.600-37.200L142.600-37.200Q144.200-37.200 144.500-36Q144.800-34.800 144.400-33.200L144.400-33.200Q140.600-19.600 136.200-11.900Q131.800-4.200 127.300-1.200Q122.800 1.800 118.200 1.800ZM166.800 1.800L166.800 1.800Q159.600 1.800 155.600-4.400Q151.600-10.600 151.600-22.600L151.600-22.600Q151.600-34 154.800-45.500Q158-57 163.600-67.400Q169.200-77.800 176.300-85.800Q183.400-93.800 191.300-98.500Q199.200-103.200 207-103.200L207-103.200Q210.800-103.200 214.200-101.700Q217.600-100.200 219.800-97L219.800-97Q221-95.200 222.200-95.200L222.200-95.200Q223.400-95.200 224.600-97L224.600-97Q226.800-100.200 228.200-101.100Q229.600-102 230.800-102L230.800-102Q233.400-102 232.800-99.200L232.800-99.200L215-22.600Q212-9.600 219-9.600L219-9.600Q223.600-9.600 227.300-15.800Q231-22 234.800-35L234.800-35Q235.400-37.200 237.400-37.200L237.400-37.200Q238.800-37.200 239.200-36Q239.600-34.800 239.200-33.200L239.200-33.200Q235.400-14.400 229-6.300Q222.600 1.800 213.600 1.800L213.600 1.800Q205.800 1.800 202.500-4.800Q199.200-11.400 201.800-22.800L201.800-22.800L204.400-33.800Q204.800-35.200 203.900-35.400Q203-35.600 202.400-34.400L202.400-34.400Q191.400-14.200 182.900-6.200Q174.400 1.800 166.800 1.800ZM171.800-8.400L171.800-8.400Q176.600-8.400 182.400-14.200Q188.200-20 193.900-29.200Q199.600-38.400 204.400-49Q209.200-59.600 212.100-69.400Q215-79.200 215-86L215-86Q215-98.200 206.400-98.200L206.400-98.200Q201.200-98.200 195.400-93.500Q189.600-88.800 184.300-80.800Q179-72.800 174.700-62.700Q170.400-52.600 167.800-41.700Q165.200-30.800 165.200-20.400L165.200-20.400Q165.200-13.400 166.900-10.900Q168.600-8.400 171.800-8.400ZM274 1.800L274 1.800Q264.200 1.800 259.400-5.600Q254.600-13 257.600-24.600L257.600-24.600L273-82.400Q275.600-91.800 269.800-91.800L269.800-91.800Q265.600-91.800 261.500-85.800Q257.400-79.800 252.600-66.200L252.600-66.200Q251.800-63.800 249.800-63.800L249.800-63.800Q248.800-63.800 248.200-64.700Q247.600-65.600 248-67L248-67Q259.600-103.200 277-103.200L277-103.200Q283.800-103.200 286.200-97.600Q288.600-92 286-82.200L286-82.200L270.200-22.600Q268-14.200 269.900-9.700Q271.800-5.200 276.800-5.200L276.800-5.200Q282.600-5.200 289.100-10.800Q295.600-16.400 301.400-25.400Q307.200-34.400 310.800-45.200Q314.400-56 314.400-66.400L314.400-66.400Q314.400-74.800 312.600-79.700Q310.800-84.600 308.900-88Q307-91.400 307-95.400L307-95.400Q307-103.200 313.800-103.200L313.800-103.200Q323.400-103.200 323.400-82L323.400-82Q323.400-66.800 319-51.900Q314.600-37 307.400-24.900Q300.200-12.800 291.500-5.500Q282.800 1.800 274 1.800ZM367.000-121L367.000-121Q363.200-121 360.700-123.700Q358.200-126.400 358.200-130.200L358.200-130.200Q358.200-135.600 361.500-138.800Q364.800-142 369.000-142L369.000-142Q373.000-142 375.700-139.500Q378.400-137 378.400-133L378.400-133Q378.400-127.400 375.000-124.200Q371.600-121 367.000-121ZM350.600 2L350.600 2Q344.000 2 341.200-2.900Q338.400-7.800 341.000-19L341.000-19L355.800-82.400Q356.800-86.800 356.100-89.300Q355.400-91.800 352.400-91.800L352.400-91.800Q348.800-91.800 344.500-86.500Q340.200-81.200 334.800-66.400L334.800-66.400Q334.000-63.800 332.000-63.800L332.000-63.800Q329.000-63.800 330.400-67.400L330.400-67.400Q334.800-81.200 339.700-89Q344.600-96.800 349.600-100Q354.600-103.200 358.800-103.200L358.800-103.200Q365.800-103.200 368.600-98.300Q371.400-93.400 368.800-82.200L368.800-82.200L354.000-18.800Q353.000-14.400 353.700-11.900Q354.400-9.400 357.400-9.400L357.400-9.400Q361.000-9.400 365.300-14.700Q369.600-20 375.000-34.800L375.000-34.800Q375.800-37.400 377.800-37.400L377.800-37.400Q380.800-37.400 379.400-33.800L379.400-33.800Q375.200-20.200 370.100-12.300Q365.000-4.400 360.000-1.200Q355.000 2 350.600 2Z" fill="#FFFFFF"></path>
</svg>