<svg width="1396" height="557" viewBox="0 0 1396 557" fill="none" xmlns="http://www.w3.org/2000/svg">
<path fill-rule="evenodd" clip-rule="evenodd" d="M180.689 0.546351C143.688 4.14735 105.003 19.3983 77.3639 41.2823C33.3729 76.1123 6.95491 125.555 0.768912 184.632C-0.789088 199.515 0.154912 234.326 2.39391 244.522C5.11691 256.922 10.4629 264.99 17.9349 267.98C23.7279 270.298 41.6049 271.528 70.3639 271.589C110.15 271.674 154.441 273.267 162.864 274.917C177.029 277.692 194.176 285.488 198.457 291.101C200.09 293.242 200.864 295.568 200.864 298.335C200.864 304.671 203.642 302.559 116.468 362.5C42.0389 413.679 30.7549 421.777 21.1219 430.928C9.23291 442.221 2.65692 455.743 0.928915 472.45C-2.53908 505.973 13.9659 533.432 45.4659 546.546C51.4479 549.036 55.3199 549.877 64.1859 550.611C70.3779 551.123 143.048 551.543 227.114 551.552L378.864 551.568V474.173C378.864 399.916 378.944 396.519 380.84 390.381C386.732 371.304 403.45 360.261 426.314 360.342C449.2 360.424 467.436 374.083 471.74 394.367C472.516 398.025 472.864 423.191 472.864 475.617V551.568H506.364H539.864V475.278C539.864 392.524 539.803 393.542 545.426 382.445C556.015 361.549 588.734 353.662 612.183 366.353C619.053 370.071 628.165 380.182 631.017 387.251L633.364 393.068L633.643 472.318L633.922 551.568H667.429H700.936L700.631 463.318C700.328 375.676 700.31 375.013 698.105 367.068C688.138 331.166 659.993 306.684 621.621 300.536C610.376 298.735 586.65 299.775 576.364 302.52C558.958 307.165 536.788 320.502 527.374 331.991L523.556 336.65L520.535 332.859C508.014 317.144 488.096 305.31 466.963 301.028C460.421 299.702 455.293 299.441 443.479 299.833C426.927 300.381 417.917 302.257 406.102 307.614C402.519 309.239 399.397 310.568 399.165 310.568C398.933 310.568 399.037 306.405 399.396 301.318C399.872 294.575 399.621 290.036 398.47 284.568C394.163 264.105 383.6 252.16 349.864 229.608C309.287 202.483 299.864 195.178 299.864 190.851C299.864 187.43 303.399 184.274 321.938 171.139C353.577 148.723 363.864 133.494 363.864 109.068C363.864 93.0513 359.018 80.3583 347.358 65.8333C322.172 34.4593 278.538 10.5603 232.049 2.67733C218 0.294333 193.656 -0.714649 180.689 0.546351ZM180.539 52.6244C176.785 53.0604 170.092 54.1513 165.664 55.0483C93.9939 69.5713 43.7439 135.472 48.3339 208.924L49.0419 220.258L94.7029 220.884C142.747 221.543 159.504 222.517 174.464 225.52C194.457 229.534 219.124 242.053 239.193 258.371C247.901 265.452 251.97 270.454 256.076 279.125C259.179 285.678 259.363 286.686 259.345 297.068C259.328 306.535 258.974 308.905 256.808 314.076C250.325 329.555 245.498 333.916 202.364 363.26C173.42 382.95 77.4359 449.391 67.8639 456.361C53.7349 466.65 49.9299 471.742 49.8859 480.417C49.8539 486.762 52.4119 491.249 58.2729 495.128C67.0169 500.916 67.1349 500.922 148.364 500.241C214.674 499.686 310.898 497.867 311.609 497.156C311.759 497.006 311.765 473.405 311.623 444.71L311.364 392.536L276.892 416.121C222.82 453.116 207.917 461.899 194.864 464.467C181.837 467.029 133.165 469.275 122.864 467.789L117.364 466.996L125.864 460.818C130.539 457.421 147.313 445.737 163.139 434.855C193.905 413.699 330.542 318.773 337.587 313.66C343.164 309.612 345.864 304.193 345.864 297.048C345.864 291.667 345.659 291.232 340.637 285.922C334.397 279.324 326.183 273.229 294.364 251.59C256.663 225.951 249.743 220.129 244.638 209.761C241.488 203.363 241.364 202.655 241.364 191.052C241.364 179.059 241.383 178.961 244.864 173.105C250.031 164.41 260.588 154.494 278.437 141.568C304.841 122.447 311.141 115.191 309.4 105.908C306.488 90.3843 282.398 71.2523 252.364 60.6103C231.284 53.1413 203.075 50.0054 180.539 52.6244ZM1348.6 188.592C1338.64 191.107 1328.63 199.564 1324.05 209.332C1321.64 214.47 1321.36 216.217 1321.36 226.089C1321.36 236.523 1321.54 237.465 1324.64 243.774C1331.27 257.225 1342.43 263.884 1358.36 263.884C1374.29 263.884 1385.46 257.225 1392.08 243.774C1395.19 237.465 1395.36 236.523 1395.36 226.089C1395.36 216.281 1395.08 214.463 1392.75 209.568C1388.94 201.533 1382.81 195.159 1375.37 191.498C1370.11 188.905 1367.53 188.292 1360.68 187.998C1356.1 187.802 1350.67 188.069 1348.6 188.592ZM837.198 301.049C796.667 308.403 762.398 338.596 748.077 379.568C736.968 411.35 737.899 451.89 750.437 482.365C767.276 523.294 801.247 549.995 843.708 555.677C855.48 557.252 875.086 556.247 885.864 553.515C900.72 549.749 918.043 540.391 926.301 531.67C927.916 529.964 929.604 528.568 930.051 528.568C930.498 528.568 930.864 533.743 930.864 540.068V551.568H963.864H996.864V428.068V304.568H963.864H930.864V316.137V327.705L925.114 322.744C906.243 306.462 885.999 299.477 858.207 299.658C850.593 299.708 841.139 300.334 837.198 301.049ZM1028.35 305.539C1028.68 306.074 1053.21 361.536 1082.88 428.789L1136.8 551.068H1161.04H1185.27L1239.06 428.568C1268.65 361.193 1292.85 305.731 1292.86 305.318C1292.86 304.905 1276.99 304.568 1257.6 304.568H1222.34L1192.35 382.068C1175.86 424.693 1162.13 459.568 1161.82 459.568C1161.52 459.568 1148.95 427.506 1133.88 388.318C1118.82 349.131 1105.41 314.256 1104.08 310.818L1101.67 304.568H1064.71C1041.04 304.568 1027.96 304.918 1028.35 305.539ZM1324.86 428.068V551.568H1358.36H1391.86V428.068V304.568H1358.36H1324.86V428.068ZM863.864 361.652C848.846 363.276 837.754 368.554 827.364 379.018C819.619 386.819 815.229 394.266 811.713 405.568C809.721 411.969 809.379 415.193 809.376 427.568C809.373 444.155 810.689 450.579 816.541 462.546C821.151 471.971 832.573 483.722 841.157 487.872C859.306 496.644 883.147 496.785 900.864 488.223C910.672 483.484 921.429 472.403 926.737 461.568C932.617 449.568 934.162 441.199 933.57 424.568C933.203 414.268 932.569 409.527 930.895 404.568C920.885 374.923 894.913 358.295 863.864 361.652Z" fill="white"/>
</svg>
