<svg width="129" height="174" viewBox="0 0 129 174" fill="none" xmlns="http://www.w3.org/2000/svg">
<path fill-rule="evenodd" clip-rule="evenodd" d="M0.5151 154.869C2.06555 162.523 8.53339 168.926 17.0964 171.285C19.4069 171.922 26.7147 172.118 69.6932 172.695L119.607 173.365L119.724 164.662L119.841 155.958L107.392 156.091C79.2997 156.391 35.3796 156.454 28.6374 156.204C22.3803 155.973 21.1849 155.803 19.5812 154.92C17.1471 153.58 16.269 152.51 15.9169 150.454C15.7119 149.258 15.8705 148.297 16.4534 147.195C17.8699 144.52 15.3726 146.284 47.1254 125.537C56.7678 119.236 65.0059 113.874 65.4323 113.622C69.095 111.448 78.2556 105.238 79.5014 104.084C80.3584 103.289 81.7406 101.3 82.5722 99.6632C85.3332 94.2291 84.494 87.9406 80.4245 83.5698C75.689 78.4839 65.8061 72.686 58.716 70.8335C53.4361 69.454 45.4416 68.8358 29.9969 68.6121L16.9221 68.423L16.7048 64.9213C15.8938 51.8251 21.0069 38.9399 30.7541 29.5196C42.6712 18.0008 59.4652 13.7562 77.5294 17.6972C88.2586 20.0376 99.6479 27.6233 100.789 33.1891C101.527 36.792 99.9398 38.6325 90.9194 44.63C84.537 48.8734 81.702 51.3969 79.7512 54.5719C78.8055 56.1103 78.6053 57.0518 78.5627 60.154C78.4707 66.8335 80.2092 68.9057 93.4359 77.8853C110.182 89.254 111.876 90.7163 111.835 93.7686C111.808 95.7737 110.791 97.5822 108.994 98.8214C108.269 99.3215 100.099 104.691 90.8383 110.754C81.5783 116.817 68.2978 125.533 61.3263 130.124C54.3549 134.714 46.1722 140.039 43.1429 141.955C40.1136 143.873 37.6299 145.598 37.6241 145.791C37.6091 146.281 49.7403 146.37 56.5774 145.929C66.4723 145.292 65.9757 145.54 95.1297 126.631C123.284 108.37 125.429 106.696 127.571 101.312C129.045 97.6053 129.411 92.3406 128.439 88.8124C126.833 82.9796 123.539 79.3042 114.691 73.4679C102.855 65.6611 97.6116 61.7696 97.4684 60.6844C97.2758 59.2273 98.0578 58.5077 104.324 54.3794C111.802 49.4528 114.414 47.0284 116.403 43.1738C119.223 37.707 119.247 31.9754 116.475 26.1041C114.537 21.9985 108.779 15.8641 103.294 12.0594C83.277 -1.82241 57.5458 -3.87628 36.2286 6.70604C30.7278 9.43679 30.7428 9.42767 26.1194 12.869C12.6783 22.8737 4.00346 38.1648 1.60765 56.0762C0.555045 63.9483 0.99413 74.6679 2.52581 78.4876C2.88868 79.3933 3.72433 80.7131 4.38254 81.4207C6.71676 83.9311 8.07178 84.1009 29.8314 84.6119C51.4269 85.1188 53.3016 85.3268 59.4571 87.8945C63.3707 89.5271 65.3371 91.3272 65.3112 93.2535C65.2837 95.3057 65.6309 95.0571 36.8864 113.645C7.79985 132.454 5.87146 133.853 3.30206 138.01C0.26274 142.926 -0.711146 148.817 0.5151 154.869Z" fill="white"/>
</svg>
