<svg width="344" height="135" viewBox="0 0 344 135" fill="none" xmlns="http://www.w3.org/2000/svg">
<path fill-rule="evenodd" clip-rule="evenodd" d="M326.479 1.29302C316.369 6.57302 317.685 22.2 328.394 24.042C335.8 25.316 342.561 19.13 342.561 11.079C342.561 7.13403 342.058 5.78803 339.727 3.49703C335.982 -0.184972 330.922 -1.02698 326.479 1.29302ZM23.5174 35.729C16.0104 37.888 7.13246 49.771 1.47446 65.232C-1.06054 72.158 -0.327542 75.589 3.67946 75.562C7.10446 75.538 7.98646 74.559 10.7745 67.688C15.2325 56.702 19.5474 50.577 22.8284 50.577C24.1284 50.577 22.9625 56.335 14.3985 92.226C5.97745 127.519 5.50745 130.045 7.05345 131.753C9.02045 133.926 18.0325 134.306 20.6925 132.327C21.6225 131.635 23.6935 126.359 25.3275 120.517C32.7765 93.892 47.3175 63.08 57.2775 52.817C62.0045 47.946 65.3945 47.206 65.3945 51.046C65.3945 52.404 61.3555 70.718 56.4205 91.745C48.0665 127.329 47.5584 130.101 49.0744 131.776C51.0194 133.925 60.1165 134.296 62.5685 132.327C63.4245 131.64 65.7725 125.52 67.7845 118.729C76.4545 89.479 89.4425 62.596 100.008 52.03C104.486 47.552 107.394 47.416 107.394 51.683C107.394 53.392 103.969 67.679 99.7835 83.433C91.1535 115.914 90.2864 121.44 92.9404 127.032C97.5634 136.775 111.219 137.234 119.395 127.923C125.967 120.438 133.58 100.662 131.434 96.651C129.094 92.279 123.297 94.951 121.833 101.077C119.75 109.787 113.579 119.577 110.171 119.577C108.315 119.577 109.859 111.594 116.977 84.391C121.552 66.908 124.578 53.342 124.607 50.195C124.693 40.528 119.788 35.18 110.815 35.16C102.324 35.141 93.1445 42.441 84.4815 56.1L81.3855 60.982L81.9574 53.53C82.6074 45.074 81.0775 40.819 76.0685 37.148C72.5745 34.588 65.2375 34.572 60.3215 37.115C55.6235 39.544 47.2915 48.322 42.8435 55.528C40.7905 58.855 38.9965 61.577 38.8575 61.577C38.7185 61.577 38.9964 59.89 39.4754 57.827C40.8134 52.065 40.5545 43.788 38.9385 40.662C37.4235 37.733 31.9445 34.511 28.7435 34.667C27.7265 34.717 25.3754 35.194 23.5174 35.729ZM178.3 35.972C169.295 38.556 157.31 48.514 149.505 59.899C144.108 67.771 137.595 82.573 135.321 92.137C132.454 104.195 132.873 119.935 136.234 126.366C140.175 133.91 148.516 136.642 156.905 133.137C161.377 131.268 169.758 123.414 174.027 117.09L177.394 112.104L177.416 117.59C177.444 124.607 180.256 130.937 184.266 133.011C185.932 133.872 189.455 134.57 192.094 134.561C203.846 134.52 212.575 123.847 216.535 104.674C217.964 97.754 217.211 95.303 213.487 94.75C210.453 94.3 208.935 95.824 207.446 100.815C203.74 113.24 197.623 122.088 195.269 118.43C194.192 116.758 193.892 118.28 203.518 76.59C207.898 57.622 211.349 40.972 211.188 39.59C210.778 36.086 205.188 35.483 201.885 38.586L199.594 40.738L195.711 38.168C190.977 35.035 184.438 34.211 178.3 35.972ZM243.078 36.026C239.186 37.414 236.816 39.135 232.678 43.577C229.989 46.465 221.979 62.407 220.61 67.599C219.36 72.339 220.651 75.577 223.79 75.577C226.932 75.577 228.918 73.566 230.45 68.836C232.226 63.349 236.305 55.415 238.679 52.827C240.836 50.475 243.394 49.825 243.394 51.629C243.394 52.207 239.991 65.37 235.832 80.879C231.674 96.388 228.018 111.153 227.709 113.689C226.755 121.532 230.854 129.695 237.463 133.113C242.084 135.503 251.176 134.988 257.178 131.998C276.667 122.286 294.812 82.897 293.112 53.995C292.253 39.401 287.246 32.821 279.056 35.523C272.572 37.663 271.843 44.676 276.876 56.494C279.388 62.394 279.574 63.724 279.182 72.994C278.687 84.701 275.928 93.707 269.566 104.383C261.684 117.61 249.221 126.797 245.697 121.977C244.981 120.997 244.394 118.877 244.394 117.265C244.394 115.654 247.994 100.747 252.394 84.138C260.754 52.58 261.718 46.038 258.828 40.449C257.284 37.463 252.183 34.535 248.676 34.621C247.696 34.645 245.177 35.277 243.078 36.026ZM318.149 35.575C310.651 37.832 302.788 47.448 297.365 60.992C293.59 70.419 293.46 74.304 296.892 75.166C300.943 76.183 301.925 75.182 305.447 66.446C308.49 58.898 314.291 50.577 316.51 50.577C318.235 50.577 317.312 55.716 310.285 85.224C300.789 125.098 300.81 130.125 310.488 133.998C322.028 138.615 336.128 125.317 342.954 103.38C344.934 97.013 344.097 94.577 339.927 94.577C337.285 94.577 335.211 96.797 333.389 101.577C332.656 103.502 330.97 107.271 329.644 109.953C325.978 117.365 320.394 122.208 320.394 117.975C320.394 117.094 323.812 101.681 327.991 83.725C336.07 49.003 336.639 43.749 332.79 39.429C330.651 37.028 325.358 34.534 322.676 34.663C321.696 34.71 319.659 35.121 318.149 35.575ZM180.894 45.974C179.244 46.7 175.852 49.495 173.355 52.185C161.766 64.676 152.591 87.127 150.887 107.162C150.133 116.026 151.254 120.577 154.189 120.577C161.791 120.577 179.22 93.405 186.902 69.577C190.401 58.722 190.873 48.142 187.953 46.001C185.604 44.278 184.76 44.275 180.894 45.974Z" fill="white"/>
</svg>
