<svg width="1493" height="468" viewBox="0 0 1493 468" fill="none" xmlns="http://www.w3.org/2000/svg">
<path fill-rule="evenodd" clip-rule="evenodd" d="M1439.46 1.22509C1426.5 4.37309 1415.32 13.3661 1409.35 25.4361C1406.08 32.0461 1405.65 33.8711 1405.22 42.6451C1404.65 54.6481 1406.24 60.9681 1412.04 69.6571C1417.39 77.6681 1426.14 84.2061 1435.17 86.9491C1440.74 88.6431 1443.98 88.9821 1451.45 88.6551C1459.73 88.2931 1461.6 87.8381 1468.21 84.5711C1477.44 80.0101 1484.87 72.4421 1489.3 63.0891C1492.32 56.7031 1492.5 55.6951 1492.5 44.8301C1492.5 33.8511 1492.35 33.0031 1489.11 26.1091C1486.7 20.9541 1483.98 17.2041 1479.59 12.9971C1472.49 6.17609 1467.55 3.40808 1458.78 1.34108C1451.35 -0.411917 1446.32 -0.441914 1439.46 1.22509ZM137.5 107.329C61.657 118.089 8.598 171.893 1.058 245.686C0.387999 252.242 0 293.616 0 358.436V460.83H44H88V359.961C88 250.777 88.084 248.852 93.435 235.606C102.629 212.843 120.85 197.117 146.002 190.235C155.942 187.516 177.029 187.72 187.291 190.634C208.098 196.543 224.81 209.866 233.957 227.838C242.093 243.822 241.429 233.449 241.995 353.33L242.5 460.33L286.724 460.59L330.947 460.851L331.224 355.09L331.5 249.33L333.865 242.33C341.149 220.768 354.065 205.764 373.5 196.289C412.321 177.362 459.16 191.694 477.223 228.028C484.911 243.49 484.397 234.869 484.742 354.08L485.052 460.83H529.026H573L572.98 353.08C572.965 266.447 572.686 243.268 571.56 234.808C564.97 185.318 536.431 144.992 492.5 123.099C468.935 111.355 443.292 105.811 412.699 105.848C365.683 105.905 325.56 121.255 294.569 151.041C290.684 154.775 287.505 157.825 287.503 157.819C287.501 157.814 283.125 153.571 277.777 148.392C257.249 128.509 232.049 115.615 200.394 108.8C187.361 105.993 152.635 105.181 137.5 107.329ZM783 107.966C724.128 113.994 674.788 145.445 644.452 196.281C635.526 211.238 626.953 233.618 622.803 252.795C620.185 264.89 619.154 297.545 620.956 311.242C628.111 365.595 660.337 414.928 706.705 442.512C729.181 455.882 753.03 463.818 780 466.901C794.806 468.593 822.57 467.557 835.5 464.83C861.766 459.289 888.462 446.972 909.25 430.802L912 428.663V444.747V460.83H955.428H998.856L999.495 455.58C999.847 452.692 999.991 375.405 999.817 283.83L999.5 117.33H956H912.5L912.223 132.08C912.071 140.193 911.578 146.83 911.128 146.83C910.678 146.83 909.482 145.915 908.47 144.796C904.995 140.957 883.983 127.683 873.744 122.859C846.558 110.051 814.316 104.76 783 107.966ZM1037 117.841C1037 118.817 1046.25 143.315 1057 170.83C1059.69 177.705 1064.35 189.855 1067.35 197.83C1070.36 205.805 1076.95 223.13 1081.99 236.33C1087.04 249.53 1093.99 267.755 1097.44 276.83C1105.45 297.885 1112.97 317.493 1118.15 330.83C1120.4 336.605 1126.62 352.805 1131.98 366.83C1137.34 380.855 1146.67 405.155 1152.73 420.83C1158.79 436.505 1164.65 451.805 1165.76 454.83L1167.78 460.33H1208.05H1248.31L1251.79 450.83C1255.95 439.462 1270.33 401.781 1316.25 281.83C1323.1 263.955 1331.71 241.455 1335.4 231.83C1339.08 222.205 1344.75 207.58 1347.99 199.33C1351.22 191.08 1356.42 177.58 1359.53 169.33C1362.64 161.08 1368.3 146.114 1372.09 136.073C1375.89 126.031 1379 117.594 1379 117.323C1379 117.052 1358.36 116.83 1333.14 116.83H1287.27L1281.2 133.58C1277.86 142.792 1270.35 163.605 1264.51 179.83C1258.67 196.055 1252.15 214.055 1250.01 219.83C1247.87 225.605 1241.34 243.605 1235.51 259.83C1211.88 325.551 1208.48 334.794 1207.92 334.812C1207.38 334.829 1203.17 323.239 1176.5 248.33C1167.21 222.229 1158.47 197.951 1146.99 166.33C1143.6 156.98 1138.27 142.13 1135.15 133.33L1129.48 117.33L1083.24 117.07C1051.99 116.894 1037 117.144 1037 117.841ZM1405 288.83V460.83H1448H1491V288.83V116.83H1448H1405V288.83ZM788.113 189.314C756.903 196.383 732.227 215.3 718.927 242.353C716.217 247.866 712.812 256.866 711.361 262.353C709.057 271.064 708.726 274.234 708.758 287.33C708.789 300.053 709.176 303.79 711.306 311.949C722.472 354.705 757.028 383.207 801.5 386.341C843.664 389.312 882.416 367.694 901.001 330.834C911.937 309.146 914.575 283.774 908.332 260.33C906.115 252.007 898.889 236.829 893.64 229.474C887.878 221.4 875.628 209.843 866.728 204.085C858.307 198.638 846.412 193.44 836 190.659C825.929 187.969 797.567 187.172 788.113 189.314Z" fill="white"/>
</svg>
